<svg width="28" height="28" viewBox="0 0 28 28" fill="none" xmlns="http://www.w3.org/2000/svg">
<g id="Capa_1" clip-path="url(#clip0_448_415)">
<g id="SVGRepo_iconCarrier">
<g id="Group">
<path id="Vector" d="M0.776218 13.226H25.3508L18.681 6.55625C18.3763 6.25152 18.3763 5.76278 18.681 5.45805C18.9858 5.15331 19.4745 5.15331 19.7792 5.45805L27.7714 13.4502C28.0762 13.755 28.0762 14.2437 27.7714 14.5485L19.7792 22.5406C19.6298 22.6901 19.4285 22.7706 19.233 22.7706C19.0375 22.7706 18.8363 22.6959 18.6868 22.5406C18.3821 22.2359 18.3821 21.7472 18.6868 21.4424L25.3565 14.7727H0.776218C0.344984 14.7727 -1.90735e-06 14.4277 -1.90735e-06 13.9965C-1.90735e-06 13.5652 0.344984 13.226 0.776218 13.226Z" fill="#636161"/>
</g>
</g>
</g>
<defs>
<clipPath id="clip0_448_415">
<rect width="28" height="28" fill="white" transform="matrix(-1 0 0 1 28 0)"/>
</clipPath>
</defs>
</svg>
