<svg width="32" height="32" viewBox="0 0 32 32" fill="none" xmlns="http://www.w3.org/2000/svg">
<g id="Frame" clip-path="url(#clip0_801_123)">
<g id="SVGRepo_iconCarrier">
<g id="Group">
<path id="Vector" d="M0 27.8739C0 30.1529 1.84732 32 4.1261 32H27.8739C30.1529 32 32 30.1527 32 27.8739V4.1261C32 1.84707 30.1527 0 27.8739 0H4.1261C1.84707 0 0 1.84732 0 4.1261V27.8739Z" fill="#563D7C"/>
<path id="Vector_2" d="M13.2701 14.1548V9.62307H17.2591C17.639 9.62307 18.0053 9.65473 18.3581 9.71805C18.7108 9.78137 19.0229 9.89443 19.2943 10.0572C19.5656 10.2201 19.7827 10.4462 19.9455 10.7356C20.1083 11.0251 20.1897 11.3959 20.1897 11.8482C20.1897 12.6623 19.9455 13.2502 19.4571 13.612C18.9686 13.9739 18.3445 14.1548 17.5847 14.1548H13.2701ZM9.00977 6.3125V25.6875H18.3988C19.2671 25.6875 20.1128 25.579 20.936 25.3619C21.7591 25.1448 22.4918 24.8101 23.134 24.3578C23.7762 23.9056 24.2872 23.3222 24.6672 22.6076C25.0471 21.893 25.237 21.0473 25.237 20.0704C25.237 18.8583 24.943 17.8226 24.3551 16.9633C23.7671 16.104 22.8762 15.5025 21.6822 15.1588C22.5506 14.7427 23.2063 14.209 23.6496 13.5578C24.0928 12.9065 24.3144 12.0924 24.3144 11.1155C24.3144 10.211 24.1651 9.45122 23.8666 8.83613C23.5682 8.22105 23.1475 7.72809 22.6048 7.35723C22.0621 6.98637 21.4109 6.71954 20.651 6.55672C19.8912 6.39391 19.05 6.3125 18.1274 6.3125H9.00977ZM13.2701 22.3769V17.0583H17.9103C18.833 17.0583 19.5747 17.2709 20.1355 17.696C20.6963 18.1211 20.9767 18.8312 20.9767 19.8262C20.9767 20.3327 20.8907 20.7488 20.7189 21.0744C20.547 21.4 20.3164 21.6578 20.0269 21.8478C19.7375 22.0377 19.4028 22.1734 19.0229 22.2548C18.643 22.3362 18.245 22.3769 17.8289 22.3769H13.2701Z" fill="white"/>
</g>
</g>
</g>
<defs>
<clipPath id="clip0_801_123">
<rect width="32" height="32" fill="white"/>
</clipPath>
</defs>
</svg>
