<svg width="38" height="38" viewBox="0 0 38 38" fill="none" xmlns="http://www.w3.org/2000/svg">
<g id="Frame">
<g id="SVGRepo_iconCarrier">
<path id="Vector" d="M19 8.86864C18.9446 8.86864 18.8797 8.86864 18.8163 8.86864C16.2672 8.86864 13.7813 9.14572 11.3905 9.67139L11.6185 9.62864C9.33533 10.1084 7.315 10.8177 5.42767 11.7551L5.5765 11.6886C3.97575 12.4596 2.62042 13.492 1.50733 14.7444L1.49625 14.7571C0.592167 15.7451 0.0285 17.0576 0 18.5001V18.5064C0.0300833 19.9536 0.592167 21.263 1.49783 22.2541L1.49467 22.2494C2.61883 23.5145 3.97417 24.5468 5.49892 25.2846L5.57492 25.3179C7.31342 26.1871 9.33375 26.8981 11.4491 27.3477L11.6169 27.3778C13.7797 27.8607 16.2656 28.1378 18.8148 28.1378H19.0095H19H19.1837C21.7328 28.1378 24.2187 27.8607 26.6095 27.3351L26.3815 27.3778C28.6647 26.8981 30.685 26.1887 32.5723 25.2514L32.4235 25.3179C34.0243 24.5468 35.3796 23.5145 36.4927 22.2621L36.5037 22.2494C37.4078 21.2614 37.9715 19.9488 38 18.5064V18.5001C37.9715 17.0513 37.4078 15.7387 36.5006 14.746L36.5037 14.7507C35.3796 13.4856 34.0243 12.4533 32.4995 11.7155L32.4235 11.6822C30.685 10.813 28.6647 10.1021 26.5493 9.65239L26.3815 9.6223C24.2187 9.13939 21.7328 8.8623 19.1837 8.8623C19.1188 8.8623 19.0538 8.8623 18.9889 8.8623H18.9984L19 8.86864ZM14.06 20.37C13.8526 20.5584 13.6167 20.7199 13.3602 20.8466L13.3428 20.8545C13.1195 20.9621 12.8551 21.0619 12.5796 21.1379L12.5463 21.1458C12.274 21.244 11.9589 21.3026 11.6296 21.3026C11.6169 21.3026 11.6043 21.3026 11.5916 21.3026H8.47083L7.96417 24.4106H5.67308L7.69975 13.8419H12.0903C12.1188 13.8419 12.1537 13.8403 12.1885 13.8403C12.7585 13.8403 13.3063 13.9401 13.813 14.1237L13.7798 14.1126C14.2468 14.2836 14.6443 14.5496 14.9641 14.8869L14.9657 14.8885C15.2428 15.2416 15.4407 15.6691 15.5262 16.1377L15.5293 16.1551C15.5689 16.3863 15.5927 16.6523 15.5927 16.9246C15.5927 17.235 15.5626 17.5374 15.5056 17.8319L15.5103 17.8018C15.4533 18.0852 15.3789 18.3322 15.2855 18.5697L15.2966 18.5396C15.2058 18.7729 15.1087 18.993 15.0053 19.1999C14.8765 19.4068 14.734 19.6142 14.5778 19.8221C14.4257 20.0264 14.2595 20.2053 14.0758 20.3652L14.0711 20.3684L14.06 20.37ZM20.6657 21.3026L21.5602 16.8344C21.5982 16.665 21.6204 16.4718 21.6204 16.2723C21.6204 16.2311 21.6188 16.19 21.6173 16.1488V16.1551C21.6157 15.9826 21.5492 15.8258 21.4415 15.7071C21.3323 15.6121 21.2024 15.5392 21.0599 15.4949L21.052 15.4933C20.8541 15.43 20.6261 15.3951 20.3902 15.3951C20.3633 15.3951 20.3363 15.3951 20.3094 15.3967H20.3126H18.5298L17.3644 21.3026H15.1113L17.138 11.0426H19.3911L18.848 13.8403H20.8747C20.9095 13.8403 20.9491 13.8387 20.9902 13.8387C21.5143 13.8387 22.0242 13.9036 22.5118 14.024L22.4691 14.0145C22.8633 14.1016 23.2069 14.2868 23.484 14.5401L23.4824 14.5386C23.7294 14.7333 23.9052 15.0104 23.9669 15.3271L23.9685 15.335C23.9907 15.4759 24.0033 15.6374 24.0033 15.8021C24.0033 16.0712 23.9701 16.3325 23.9052 16.5811L23.9099 16.5589L22.9773 21.2994L20.6657 21.3026ZM33.1772 17.8446C33.1138 18.1311 33.0473 18.3639 32.9682 18.5935L32.9824 18.5444C32.8969 18.7961 32.7924 19.0146 32.6642 19.2173L32.6721 19.2046C32.5628 19.4501 32.433 19.6606 32.2794 19.8506L32.2842 19.8443C32.129 20.0375 31.9628 20.2085 31.7823 20.3652L31.7775 20.37C31.5701 20.5584 31.3342 20.7199 31.0777 20.8466L31.0603 20.8545C30.837 20.9621 30.5726 21.0619 30.2971 21.1379L30.2638 21.1458C29.9915 21.244 29.6764 21.3026 29.3471 21.3026C29.3344 21.3026 29.3218 21.3026 29.3091 21.3026H26.1883L25.6453 24.4043H23.3922L25.4188 13.8356H29.7714C29.8062 13.834 29.8458 13.834 29.887 13.834C30.4649 13.834 31.0207 13.9337 31.5352 14.119L31.5004 14.1079C31.9548 14.2726 32.338 14.5386 32.6373 14.8806L32.6404 14.8837C32.9412 15.2352 33.155 15.6706 33.2389 16.1488L33.2421 16.1646C33.2769 16.3721 33.2975 16.6096 33.2975 16.8534C33.2975 17.2033 33.2563 17.5421 33.1787 17.8683L33.1851 17.8382L33.1772 17.8446ZM28.9022 15.3951H27.3537L26.5414 19.7477H27.8967H27.9791C28.3749 19.7477 28.7644 19.7113 29.1413 19.6432L29.1017 19.6496C29.4247 19.5926 29.7128 19.477 29.9662 19.3139L29.9567 19.3186C30.172 19.1255 30.3525 18.9022 30.4934 18.6521L30.4998 18.6394C30.6628 18.3417 30.7848 17.995 30.8465 17.6292L30.8497 17.6102C30.8988 17.406 30.9257 17.1701 30.9257 16.9278C30.9257 16.8106 30.9193 16.6951 30.9067 16.5826L30.9083 16.5969C30.8861 16.3467 30.7943 16.1203 30.6533 15.9335L30.6549 15.9366C30.4713 15.7656 30.2512 15.6326 30.0073 15.5519L29.9947 15.5487C29.7002 15.4506 29.3629 15.3951 29.0114 15.3951C28.975 15.3951 28.9386 15.3951 28.9037 15.3967H28.9085L28.9022 15.3951ZM11.1847 15.3951H9.63617L8.82075 19.7477H10.1792H10.2616C10.6574 19.7477 11.0469 19.7113 11.4238 19.6432L11.3842 19.6496C11.7072 19.5926 11.9953 19.477 12.2487 19.3139L12.2392 19.3186C12.4545 19.1255 12.635 18.9022 12.7759 18.6521L12.7823 18.6394C12.9453 18.3417 13.0673 17.995 13.129 17.6292L13.1322 17.6102C13.1812 17.406 13.2082 17.1701 13.2082 16.9278C13.2082 16.8106 13.2018 16.6951 13.1892 16.5826L13.1908 16.5969C13.1686 16.3467 13.0768 16.1203 12.9358 15.9335L12.9374 15.9366C12.7537 15.7656 12.5337 15.6326 12.2898 15.5519L12.2772 15.5487C11.9827 15.4506 11.6454 15.3951 11.2939 15.3951C11.2575 15.3951 11.2211 15.3951 11.1863 15.3967H11.191L11.1847 15.3951Z" fill="#287A7F"/>
</g>
</g>
</svg>
