<svg width="32" height="32" viewBox="0 0 32 32" fill="none" xmlns="http://www.w3.org/2000/svg">
<g id="Frame" clip-path="url(#clip0_801_117)">
<g id="SVGRepo_iconCarrier">
<g id="Group">
<path id="Vector" d="M31.4972 7.22662C31.5087 7.2692 31.5147 7.31311 31.5147 7.35723V14.214C31.5147 14.3931 31.4188 14.5585 31.2635 14.6477L25.5085 17.9611V24.5284C25.5085 24.7072 25.4135 24.8722 25.2585 24.9621L13.2455 31.8776C13.218 31.8933 13.188 31.9032 13.158 31.9139C13.1467 31.9176 13.1361 31.9245 13.1242 31.9276C13.0402 31.9497 12.952 31.9497 12.868 31.9276C12.8543 31.9239 12.8418 31.9164 12.8286 31.9114C12.8011 31.9014 12.7724 31.8926 12.7461 31.8776L0.735597 24.9621C0.580299 24.8729 0.484375 24.7075 0.484375 24.5284V3.95823C0.484375 3.91323 0.490624 3.86949 0.501873 3.82699C0.505623 3.81262 0.514372 3.7995 0.519371 3.78512C0.528745 3.75888 0.537494 3.732 0.551243 3.70763C0.560617 3.69138 0.574365 3.67826 0.585614 3.66326C0.599987 3.64326 0.613111 3.62264 0.629984 3.60514C0.644357 3.59077 0.663105 3.58015 0.679353 3.56765C0.697476 3.55265 0.713725 3.5364 0.734347 3.52453H0.734972L6.74055 0.0667871C6.89531 -0.0222624 7.08575 -0.0222624 7.2405 0.0667871L13.2461 3.52453H13.2473C13.2673 3.53703 13.2842 3.55265 13.3023 3.56702C13.3186 3.57952 13.3367 3.59077 13.3511 3.60452C13.3686 3.62264 13.3811 3.64326 13.3961 3.66326C13.4067 3.67826 13.4211 3.69138 13.4298 3.70763C13.4442 3.73263 13.4523 3.75888 13.4623 3.78512C13.4673 3.7995 13.4761 3.81262 13.4798 3.82762C13.4913 3.87021 13.4972 3.91412 13.4973 3.95823V16.8062L18.5017 13.9246V7.3566C18.5017 7.31286 18.508 7.26849 18.5192 7.22662C18.5236 7.21162 18.5317 7.19849 18.5367 7.18412C18.5467 7.15787 18.5555 7.131 18.5692 7.10663C18.5786 7.09038 18.5924 7.07726 18.603 7.06226C18.618 7.04226 18.6305 7.02164 18.648 7.00414C18.6624 6.98977 18.6805 6.97914 18.6967 6.96665C18.7155 6.95165 18.7317 6.9354 18.7517 6.92352H18.7523L24.7586 3.46578C24.9133 3.37661 25.1038 3.37661 25.2585 3.46578L31.2641 6.92352C31.2853 6.93602 31.3016 6.95165 31.3203 6.96602C31.3359 6.97852 31.3541 6.98977 31.3684 7.00352C31.3859 7.02164 31.3984 7.04226 31.4134 7.06226C31.4247 7.07726 31.4384 7.09038 31.4472 7.10663C31.4616 7.131 31.4697 7.15787 31.4797 7.18412C31.4853 7.19849 31.4934 7.21162 31.4972 7.22662ZM30.5135 13.9246V8.22276L28.4119 9.43262L25.5085 11.1043V16.8062L30.5142 13.9246H30.5135ZM24.508 24.2391V18.5335L21.652 20.1646L13.4967 24.819V30.5784L24.508 24.2391ZM1.48551 4.82376V24.2391L12.4955 30.5778V24.8197L6.74368 21.5644L6.74181 21.5631L6.7393 21.5619C6.71993 21.5507 6.70368 21.5344 6.68556 21.5207C6.66994 21.5082 6.65181 21.4982 6.63807 21.4844L6.63682 21.4825C6.62057 21.4669 6.60932 21.4475 6.59557 21.43C6.58307 21.4132 6.56807 21.3988 6.55808 21.3813L6.55745 21.3794C6.5462 21.3607 6.53933 21.3382 6.5312 21.3169C6.52308 21.2982 6.51246 21.2807 6.50746 21.2607V21.2601C6.50121 21.2363 6.49996 21.2113 6.49746 21.1869C6.49496 21.1682 6.48996 21.1494 6.48996 21.1307V21.1294V7.70531L3.58716 6.033L1.48551 4.82438V4.82376ZM6.99115 1.07792L1.98733 3.95823L6.9899 6.83853L11.9931 3.9576L6.9899 1.07792H6.99115ZM9.59336 19.0534L12.4962 17.3824V4.82376L10.3945 6.03362L7.4911 7.70531V20.2639L9.59336 19.0534ZM25.0085 4.47692L20.0053 7.35723L25.0085 10.2375L30.0111 7.3566L25.0085 4.47692ZM24.508 11.1043L21.6045 9.43262L19.5029 8.22276V13.9246L22.4057 15.5957L24.508 16.8062V11.1043ZM12.9955 23.9535L20.334 19.764L24.0024 17.6705L19.0029 14.792L13.2467 18.106L8.00041 21.1263L12.9955 23.9535Z" fill="#FF2D20"/>
</g>
</g>
</g>
<defs>
<clipPath id="clip0_801_117">
<rect width="32" height="32" fill="white"/>
</clipPath>
</defs>
</svg>
