<svg width="32" height="32" viewBox="0 0 32 32" fill="none" xmlns="http://www.w3.org/2000/svg">
<g id="Frame">
<g id="SVGRepo_iconCarrier">
<g id="Group">
<path id="Vector" d="M16.0002 31.9406C15.56 31.9406 15.1492 31.8232 14.7677 31.6178L10.865 29.2997C10.2781 28.9769 10.5716 28.8595 10.7476 28.8008C11.5399 28.5368 11.6866 28.4781 12.5083 28.0086C12.5963 27.9499 12.7137 27.9792 12.8017 28.0379L15.7948 29.8279C15.9121 29.8866 16.0588 29.8866 16.1469 29.8279L27.855 23.0495C27.9724 22.9908 28.0311 22.8734 28.0311 22.7267V9.19925C28.0311 9.05253 27.9724 8.93516 27.855 8.87647L16.1469 2.12742C16.0295 2.06873 15.8828 2.06873 15.7948 2.12742L4.08661 8.87647C3.96924 8.93516 3.91055 9.08188 3.91055 9.19925V22.7267C3.91055 22.8441 3.96924 22.9908 4.08661 23.0495L7.28508 24.8981C9.01636 25.7784 10.1021 24.7514 10.1021 23.7244V10.373C10.1021 10.1969 10.2488 10.0209 10.4542 10.0209H11.9507C12.1268 10.0209 12.3029 10.1676 12.3029 10.373V23.7244C12.3029 26.0425 11.0411 27.3924 8.84029 27.3924C8.16539 27.3924 7.6372 27.3924 6.14067 26.6588L3.05958 24.8981C2.29665 24.458 1.82715 23.6364 1.82715 22.756V9.2286C1.82715 8.34828 2.29665 7.52666 3.05958 7.08651L14.7677 0.308109C15.5013 -0.102703 16.499 -0.102703 17.2326 0.308109L28.9407 7.08651C29.7037 7.52666 30.1732 8.34828 30.1732 9.2286V22.756C30.1732 23.6364 29.7037 24.458 28.9407 24.8981L17.2326 31.6765C16.8511 31.8526 16.411 31.9406 16.0002 31.9406ZM19.6094 22.6387C14.4743 22.6387 13.4179 20.2912 13.4179 18.2958C13.4179 18.1197 13.5646 17.9437 13.77 17.9437H15.2959C15.472 17.9437 15.6187 18.0611 15.6187 18.2371C15.8534 19.7923 16.5283 20.5553 19.6388 20.5553C22.1037 20.5553 23.16 19.9977 23.16 18.6773C23.16 17.9143 22.8666 17.3568 19.0226 16.9753C15.8241 16.6526 13.8287 15.9483 13.8287 13.3954C13.8287 11.0186 15.8241 9.61006 19.1693 9.61006C22.9253 9.61006 24.7739 10.9012 25.0087 13.7182C25.0087 13.8062 24.9793 13.8942 24.9206 13.9823C24.862 14.041 24.7739 14.0997 24.6859 14.0997H23.16C23.0133 14.0997 22.8666 13.9823 22.8372 13.8356C22.4851 12.2217 21.5755 11.6935 19.1693 11.6935C16.4697 11.6935 16.1469 12.6325 16.1469 13.3367C16.1469 14.1877 16.5283 14.4518 20.167 14.9213C23.7762 15.3908 25.4782 16.0657 25.4782 18.5892C25.4488 21.1715 23.3361 22.6387 19.6094 22.6387Z" fill="#539E43"/>
</g>
</g>
</g>
</svg>
