<svg width="34" height="34" viewBox="0 0 34 34" fill="none" xmlns="http://www.w3.org/2000/svg">
<g id="Frame">
<g id="SVGRepo_iconCarrier">
<path id="Vector" d="M17 31.875C25.2152 31.875 31.875 25.2152 31.875 17C31.875 8.78476 25.2152 2.125 17 2.125C8.78476 2.125 2.125 8.78476 2.125 17C2.125 25.2152 8.78476 31.875 17 31.875Z" fill="white"/>
<path id="Vector_2" d="M19.4337 17.0001C19.4337 17.3197 19.3707 17.6362 19.2484 17.9314C19.1261 18.2267 18.9467 18.495 18.7207 18.7209C18.4946 18.9469 18.2263 19.1261 17.931 19.2483C17.6357 19.3705 17.3191 19.4333 16.9995 19.4332C16.3542 19.4332 15.7354 19.1768 15.2791 18.7205C14.8228 18.2642 14.5664 17.6454 14.5664 17.0001C14.5664 16.3546 14.8228 15.7356 15.2792 15.2792C15.7356 14.8228 16.3546 14.5664 17.0001 14.5664C17.6455 14.5664 18.2645 14.8228 18.7209 15.2792C19.1773 15.7356 19.4337 16.3546 19.4337 17.0001Z" fill="#263238"/>
<path id="Vector_3" d="M27.8037 10.762C27.2742 9.85163 26.6316 9.01195 25.8912 8.26302L23.0788 9.88652C22.2111 9.14576 21.2155 8.56964 20.1409 8.18652C19.2018 9.12872 18.4326 10.2261 17.8672 11.4303C21.2876 11.3169 24.6277 12.4812 27.2363 14.6965L29.0064 13.6743C28.7297 12.6573 28.3252 11.6795 27.8026 10.7641L27.8037 10.762Z" fill="#1976D2"/>
<path id="Vector_4" d="M27.8041 23.2361C28.3277 22.3227 28.7336 21.3466 29.0121 20.3313L26.1986 18.7067C26.4077 17.5832 26.4095 16.4309 26.2039 15.3067C24.9184 14.9644 23.5834 14.8468 22.2578 14.9593C24.0692 17.8657 24.7326 21.3428 24.1183 24.7119L25.8884 25.7341C26.6299 24.9857 27.2735 24.1463 27.8041 23.2361Z" fill="#42A5F5"/>
<path id="Vector_5" d="M16.9996 29.474C18.0527 29.4709 19.1012 29.3346 20.1201 29.0681V25.819C21.196 25.4387 22.1934 24.8651 23.0632 24.1264C22.7169 22.8419 22.1511 21.6269 21.3909 20.5352C19.7791 23.5542 17.1007 25.8648 13.8779 27.0164V29.0607C14.8968 29.3297 15.9457 29.4686 16.9996 29.474Z" fill="#1976D2"/>
<path id="Vector_6" d="M6.19902 23.2373C6.72847 24.1476 7.37109 24.9873 8.11152 25.7363L10.925 24.1117C11.7926 24.8525 12.7882 25.4286 13.8628 25.8117C14.802 24.8695 15.5712 23.7721 16.1366 22.5679C12.7162 22.6814 9.37607 21.517 6.76745 19.3018L4.99414 20.3271C5.2712 21.3441 5.67605 22.322 6.19902 23.2373Z" fill="#42A5F5"/>
<path id="Vector_7" d="M6.19795 10.7636C5.67577 11.6772 5.27128 12.6532 4.99414 13.6684L7.80764 15.293C7.59855 16.4165 7.59675 17.5688 7.80233 18.693C9.08786 19.0353 10.4229 19.1528 11.7485 19.0404C9.93665 16.1342 9.27296 12.657 9.88695 9.28775L8.11683 8.26562C7.37423 9.01385 6.72947 9.85318 6.19795 10.7636Z" fill="#1976D2"/>
<path id="Vector_8" d="M17.0002 4.52539C15.9471 4.52842 14.8985 4.66479 13.8796 4.93127V8.18145C12.8037 8.56172 11.8063 9.13532 10.9365 9.87402C11.2829 11.1585 11.8487 12.3735 12.6089 13.4653C14.2207 10.4462 16.8991 8.13566 20.1218 6.98402V4.9387C19.1029 4.66963 18.054 4.53076 17.0002 4.52539Z" fill="#42A5F5"/>
</g>
</g>
</svg>
