<svg width="109" height="109" viewBox="0 0 109 109" fill="none" xmlns="http://www.w3.org/2000/svg">
<path id="Star 4" opacity="0.6" d="M52.5059 2.72776C52.7677 0.345051 56.2323 0.345051 56.4941 2.72776L61.1586 45.1816C61.3125 46.5819 62.4181 47.6875 63.8184 47.8414L106.272 52.5059C108.655 52.7677 108.655 56.2323 106.272 56.4941L63.8184 61.1586C62.4181 61.3125 61.3125 62.4181 61.1586 63.8184L56.4941 106.272C56.2323 108.655 52.7677 108.655 52.5059 106.272L47.8414 63.8184C47.6875 62.4181 46.5819 61.3125 45.1816 61.1586L2.72776 56.4941C0.345051 56.2323 0.345051 52.7677 2.72776 52.5059L45.1816 47.8414C46.5819 47.6875 47.6875 46.5819 47.8414 45.1816L52.5059 2.72776Z" stroke="#636161"/>
</svg>
