<svg width="91" height="89" viewBox="0 0 91 89" fill="none" xmlns="http://www.w3.org/2000/svg">
<path id="Star 3" d="M44.3586 30.9953L45.5 9.45114L46.6414 30.9953C46.9128 36.119 52.7353 38.923 56.9104 35.9406L74.466 23.4004L58.3337 37.7253C54.497 41.1321 55.9351 47.4326 60.8699 48.8374L81.6199 54.7441L60.362 51.0629C55.3063 50.1874 51.277 55.2399 53.2556 59.974L61.5749 79.8798L51.1989 60.9644C48.7312 56.4659 42.2688 56.4659 39.8011 60.9644L29.4251 79.8798L37.7444 59.974C39.723 55.2399 35.6937 50.1874 30.638 51.0629L9.38008 54.7441L30.1301 48.8374C35.0649 47.4326 36.503 41.1321 32.6663 37.7253L16.5341 23.4004L34.0896 35.9407C38.2647 38.923 44.0872 36.119 44.3586 30.9953Z" stroke="#636161"/>
</svg>
