<svg width="32" height="32" viewBox="0 0 32 32" fill="none" xmlns="http://www.w3.org/2000/svg">
<g id="Frame" clip-path="url(#clip0_801_81)">
<g id="SVGRepo_iconCarrier">
<g id="Group">
<path id="Vector" d="M0 0H32V32H0V0Z" fill="#F7DF1E"/>
<path id="Vector_2" d="M8.41411 26.7418L10.863 25.2598C11.3354 26.0975 11.7652 26.8062 12.796 26.8062C13.7842 26.8062 14.4072 26.4197 14.4072 24.9162V14.6914H17.4143V24.9587C17.4143 28.0733 15.5886 29.4911 12.9249 29.4911C10.5193 29.4911 9.12289 28.2451 8.41406 26.7416" fill="white"/>
<path id="Vector_3" d="M19.0479 26.4197L21.4964 25.002C22.141 26.0546 22.9787 26.8278 24.4608 26.8278C25.7068 26.8278 26.5014 26.2049 26.5014 25.3456C26.5014 24.3146 25.6852 23.9494 24.3104 23.3481L23.5588 23.0257C21.3891 22.1022 19.9499 20.9423 19.9499 18.4935C19.9499 16.238 21.6683 14.5195 24.3535 14.5195C26.2652 14.5195 27.64 15.1855 28.6279 16.9254L26.2866 18.429C25.771 17.5054 25.2127 17.1403 24.3535 17.1403C23.4728 17.1403 22.9143 17.6988 22.9143 18.429C22.9143 19.3312 23.4728 19.6964 24.7615 20.2549L25.5132 20.5771C28.0694 21.6727 29.5087 22.7895 29.5087 25.3027C29.5087 28.0094 27.3821 29.4914 24.5253 29.4914C21.7329 29.4914 19.9284 28.1597 19.0479 26.4197Z" fill="white"/>
</g>
</g>
</g>
<defs>
<clipPath id="clip0_801_81">
<rect width="32" height="32" fill="white"/>
</clipPath>
</defs>
</svg>
