<svg width="44" height="44" viewBox="0 0 44 44" fill="none" xmlns="http://www.w3.org/2000/svg">
<g id="Frame">
<g id="SVGRepo_iconCarrier">
<path id="Vector" d="M36.3002 17.2242V5.9125C36.2882 5.43426 36.0898 4.97963 35.7473 4.64567C35.4048 4.3117 34.9453 4.12485 34.4669 4.125H9.4877C9.00945 4.13696 8.55483 4.33538 8.22086 4.67791C7.8869 5.02044 7.70005 5.47994 7.7002 5.95833V38.1333C7.70005 38.6117 7.8869 39.0712 8.22086 39.4138C8.55483 39.7563 9.00945 39.9547 9.4877 39.9667H34.5127C34.9989 39.9667 35.4652 39.7735 35.8091 39.4297C36.1529 39.0859 36.346 38.6196 36.346 38.1333V22.4492" stroke="#FF6809" stroke-linecap="round" stroke-linejoin="round"/>
<path id="Vector_2" d="M13.9521 11.6416H30.0396" stroke="#FF6809" stroke-linecap="round" stroke-linejoin="round"/>
<path id="Vector_3" d="M30.0396 18.5439H13.9521" stroke="#FF6809" stroke-linecap="round" stroke-linejoin="round"/>
<path id="Vector_4" d="M13.9521 25.4561H22.8896" stroke="#FF6809" stroke-linecap="round" stroke-linejoin="round"/>
<path id="Vector_5" d="M13.9521 32.3584H19.3146" stroke="#FF6809" stroke-linecap="round" stroke-linejoin="round"/>
<path id="Vector_6" d="M23.8338 30.1035V32.3585H26.0338C26.2679 32.3528 26.4909 32.2577 26.6571 32.0927L40.8746 17.8752L38.2621 15.2627L24.0446 29.4802C23.8996 29.6547 23.8245 29.8768 23.8338 30.1035Z" stroke="#FF6809" stroke-linecap="round" stroke-linejoin="round"/>
<path id="Vector_7" d="M42.8817 15.8489C43.0105 15.72 43.0828 15.5453 43.0828 15.3631C43.0828 15.1809 43.0105 15.0062 42.8817 14.8773L41.2959 13.2548C41.167 13.126 40.9922 13.0537 40.8101 13.0537C40.6279 13.0537 40.4531 13.126 40.3242 13.2548L38.2617 15.2714L40.8742 17.8839L42.8817 15.8489Z" stroke="#FF6809" stroke-linecap="round" stroke-linejoin="round"/>
</g>
</g>
</svg>
